<svg width="454" height="234" viewBox="0 0 454 234" fill="none" xmlns="http://www.w3.org/2000/svg">
<rect width="454" height="234" fill="white"/>
<path fill-rule="evenodd" clip-rule="evenodd" d="M125.001 45.3125C115.371 45.3125 107.563 53.1195 107.563 62.75V64.7641C111.881 64.6874 116.618 64.6874 121.817 64.6875H128.185C133.384 64.6874 138.121 64.6874 142.438 64.7641V62.75C142.438 53.1195 134.632 45.3125 125.001 45.3125ZM154.063 65.2915V62.75C154.063 46.6992 141.052 33.6875 125.001 33.6875C108.95 33.6875 95.9384 46.6992 95.9384 62.75V65.2915C94.8323 65.3866 93.7634 65.4969 92.7305 65.6245C84.9032 66.5916 78.4504 68.6232 72.9688 73.1724C67.4873 77.7217 64.3014 83.6896 61.9083 91.2046C59.5893 98.4874 57.8339 107.85 55.6271 119.62L55.4669 120.475C52.3529 137.082 49.8989 150.169 49.4486 160.487C48.987 171.062 50.5603 179.821 56.526 187.01C62.4918 194.198 70.8108 197.359 81.2904 198.854C91.5143 200.312 104.83 200.312 121.726 200.312H128.276C145.172 200.312 158.488 200.312 168.712 198.854C179.191 197.359 187.51 194.198 193.476 187.01C199.442 179.821 201.015 171.062 200.553 160.487C200.103 150.169 197.649 137.082 194.535 120.475L194.375 119.62C192.168 107.85 190.412 98.4875 188.094 91.2046C185.7 83.6896 182.514 77.7217 177.033 73.1724C171.551 68.6232 165.098 66.5916 157.271 65.6245C156.239 65.4969 155.169 65.3866 154.063 65.2915ZM94.1559 77.1618C87.5255 77.981 83.5209 79.522 80.393 82.1179C77.265 84.714 75.0124 88.3659 72.9853 94.7318C70.9094 101.251 69.2761 109.906 66.9812 122.145C63.7593 139.329 61.4725 151.601 61.0625 160.994C60.6596 170.226 62.1403 175.571 65.4716 179.586C68.8029 183.6 73.7842 186.04 82.9325 187.345C92.2395 188.674 104.724 188.687 122.206 188.687H127.795C145.278 188.687 157.762 188.674 167.069 187.345C176.217 186.04 181.199 183.6 184.53 179.586C187.862 175.571 189.342 170.226 188.939 160.994C188.529 151.601 186.243 139.329 183.02 122.145C180.726 109.906 179.093 101.251 177.016 94.7318C174.989 88.3659 172.737 84.714 169.609 82.1179C166.481 79.522 162.477 77.981 155.846 77.1618C149.056 76.3228 140.248 76.3125 127.795 76.3125H122.206C109.753 76.3125 100.946 76.3228 94.1559 77.1618ZM144.363 116.53C146.762 118.663 146.978 122.337 144.845 124.737L124.178 147.987C123.15 149.143 121.703 149.842 120.158 149.928C118.612 150.015 117.097 149.481 115.946 148.446L105.613 139.146C103.226 136.998 103.033 133.323 105.181 130.937C107.328 128.551 111.003 128.357 113.389 130.504L119.376 135.892L136.157 117.013C138.289 114.614 141.963 114.398 144.363 116.53Z" fill="#E62E05"/>
<path d="M253.787 175.645C250.221 175.645 247.181 175 244.667 173.711C242.153 172.4 240.241 170.381 238.931 167.652C237.62 164.924 236.965 161.433 236.965 157.179C236.965 152.774 237.706 149.187 239.188 146.415C240.692 143.622 242.766 141.57 245.408 140.26C248.072 138.949 251.155 138.294 254.657 138.294C257.149 138.294 259.298 138.541 261.103 139.035C262.929 139.508 264.519 140.077 265.872 140.743L262.972 148.349C261.425 147.726 259.985 147.221 258.653 146.834C257.321 146.426 255.989 146.222 254.657 146.222C252.938 146.222 251.51 146.63 250.371 147.446C249.232 148.241 248.384 149.444 247.825 151.056C247.267 152.667 246.987 154.687 246.987 157.114C246.987 159.499 247.288 161.476 247.89 163.044C248.491 164.612 249.361 165.783 250.5 166.557C251.639 167.309 253.024 167.685 254.657 167.685C256.698 167.685 258.514 167.416 260.104 166.879C261.693 166.32 263.24 165.547 264.744 164.559V172.97C263.24 173.915 261.661 174.592 260.007 175C258.374 175.43 256.301 175.645 253.787 175.645ZM287.979 138.294C291.31 138.294 294.178 138.938 296.584 140.228C298.99 141.495 300.849 143.343 302.159 145.771C303.47 148.198 304.125 151.163 304.125 154.665V159.435H280.89C280.997 162.206 281.824 164.387 283.371 165.977C284.939 167.545 287.109 168.329 289.881 168.329C292.18 168.329 294.285 168.093 296.197 167.62C298.109 167.147 300.075 166.438 302.095 165.493V173.099C300.312 173.979 298.442 174.624 296.487 175.032C294.554 175.44 292.201 175.645 289.43 175.645C285.82 175.645 282.619 174.979 279.826 173.646C277.055 172.314 274.874 170.284 273.284 167.556C271.716 164.827 270.932 161.39 270.932 157.243C270.932 153.032 271.641 149.53 273.059 146.737C274.498 143.923 276.496 141.817 279.053 140.421C281.609 139.003 284.585 138.294 287.979 138.294ZM288.044 145.287C286.132 145.287 284.542 145.899 283.274 147.124C282.028 148.349 281.309 150.271 281.115 152.893H294.908C294.887 151.432 294.618 150.132 294.103 148.993C293.608 147.854 292.856 146.952 291.847 146.286C290.858 145.62 289.591 145.287 288.044 145.287ZM332.227 138.294C332.721 138.294 333.29 138.326 333.935 138.391C334.601 138.434 335.138 138.498 335.546 138.584L334.805 147.801C334.482 147.693 334.021 147.618 333.419 147.575C332.839 147.511 332.334 147.479 331.904 147.479C330.637 147.479 329.401 147.64 328.198 147.962C327.017 148.284 325.953 148.811 325.008 149.541C324.062 150.25 323.311 151.195 322.752 152.377C322.215 153.537 321.946 154.966 321.946 156.663V175H312.117V138.971H319.562L321.012 145.029H321.495C322.204 143.805 323.085 142.688 324.138 141.678C325.212 140.646 326.426 139.83 327.779 139.229C329.154 138.605 330.637 138.294 332.227 138.294ZM357.267 167.813C358.341 167.813 359.383 167.706 360.393 167.491C361.424 167.276 362.444 167.008 363.454 166.686V174.001C362.401 174.474 361.091 174.86 359.522 175.161C357.976 175.483 356.278 175.645 354.431 175.645C352.282 175.645 350.349 175.301 348.63 174.613C346.933 173.904 345.59 172.69 344.602 170.972C343.635 169.231 343.151 166.814 343.151 163.721V146.351H338.446V142.193L343.86 138.906L346.696 131.301H352.98V138.971H363.067V146.351H352.98V163.721C352.98 165.096 353.367 166.127 354.141 166.814C354.936 167.48 355.978 167.813 357.267 167.813ZM385.529 138.229C390.363 138.229 394.069 139.282 396.647 141.388C399.226 143.493 400.515 146.694 400.515 150.991V175H393.65L391.749 170.102H391.491C390.46 171.391 389.407 172.443 388.333 173.26C387.259 174.076 386.023 174.678 384.627 175.064C383.23 175.451 381.533 175.645 379.535 175.645C377.408 175.645 375.496 175.236 373.799 174.42C372.123 173.604 370.802 172.357 369.835 170.682C368.868 168.984 368.385 166.836 368.385 164.236C368.385 160.412 369.728 157.598 372.413 155.793C375.099 153.967 379.127 152.957 384.498 152.764L390.75 152.57V150.991C390.75 149.101 390.256 147.715 389.268 146.834C388.279 145.953 386.904 145.513 385.143 145.513C383.402 145.513 381.694 145.76 380.019 146.254C378.343 146.748 376.667 147.371 374.991 148.123L371.736 141.484C373.648 140.475 375.786 139.68 378.149 139.1C380.534 138.52 382.994 138.229 385.529 138.229ZM390.75 158.307L386.947 158.436C383.768 158.521 381.555 159.091 380.309 160.144C379.084 161.196 378.472 162.582 378.472 164.301C378.472 165.805 378.912 166.879 379.793 167.523C380.674 168.146 381.823 168.458 383.241 168.458C385.347 168.458 387.119 167.835 388.559 166.589C390.02 165.343 390.75 163.57 390.75 161.271V158.307Z" fill="#E62E05"/>
<path d="M247.406 111L234 75.6797H239.736L247.503 97.0459C248.04 98.5068 248.588 100.118 249.146 101.88C249.705 103.642 250.092 105.06 250.307 106.134H250.532C250.79 105.06 251.22 103.642 251.821 101.88C252.423 100.097 252.971 98.4854 253.465 97.0459L261.231 75.6797H266.968L253.529 111H247.406ZM286.239 75.0352C289.247 75.0352 291.825 75.7012 293.974 77.0332C296.122 78.3652 297.766 80.2344 298.904 82.6406C300.043 85.0254 300.612 87.8184 300.612 91.0195V94.3389H276.217C276.281 98.4854 277.312 101.644 279.311 103.813C281.309 105.983 284.123 107.068 287.754 107.068C289.988 107.068 291.965 106.864 293.684 106.456C295.402 106.048 297.186 105.446 299.033 104.651V109.356C297.25 110.151 295.478 110.731 293.716 111.097C291.976 111.462 289.913 111.645 287.528 111.645C284.134 111.645 281.169 110.957 278.634 109.582C276.12 108.186 274.165 106.145 272.769 103.459C271.372 100.773 270.674 97.4863 270.674 93.5977C270.674 89.7949 271.308 86.5078 272.575 83.7363C273.864 80.9434 275.669 78.7949 277.989 77.291C280.331 75.7871 283.081 75.0352 286.239 75.0352ZM286.175 79.418C283.317 79.418 281.04 80.3525 279.343 82.2217C277.646 84.0908 276.636 86.7012 276.313 90.0527H295.005C294.983 87.9473 294.65 86.0996 294.006 84.5098C293.383 82.8984 292.427 81.6523 291.138 80.7715C289.849 79.8691 288.194 79.418 286.175 79.418ZM326.426 75.0352C330.615 75.0352 333.784 76.0664 335.933 78.1289C338.081 80.1699 339.155 83.457 339.155 87.9902V111H333.87V88.3447C333.87 85.4014 333.193 83.1992 331.84 81.7383C330.508 80.2773 328.456 79.5469 325.685 79.5469C321.774 79.5469 319.024 80.6533 317.435 82.8662C315.845 85.0791 315.05 88.291 315.05 92.502V111H309.7V75.6797H314.019L314.824 80.7715H315.114C315.866 79.5254 316.822 78.4834 317.982 77.6455C319.143 76.7861 320.442 76.1416 321.882 75.7119C323.321 75.2607 324.836 75.0352 326.426 75.0352ZM362.745 111.645C358.276 111.645 354.731 110.119 352.11 107.068C349.511 104.018 348.211 99.4844 348.211 93.4688C348.211 87.3887 349.543 82.8018 352.207 79.708C354.871 76.5928 358.416 75.0352 362.842 75.0352C364.711 75.0352 366.344 75.2822 367.74 75.7764C369.137 76.2705 370.34 76.9365 371.35 77.7744C372.359 78.5908 373.208 79.5254 373.896 80.5781H374.282C374.196 79.9121 374.11 78.999 374.024 77.8389C373.938 76.6787 373.896 75.7334 373.896 75.0029V60.8555H379.245V111H374.927L374.121 105.973H373.896C373.229 107.025 372.381 107.981 371.35 108.841C370.34 109.7 369.126 110.388 367.708 110.903C366.312 111.397 364.657 111.645 362.745 111.645ZM363.583 107.197C367.364 107.197 370.039 106.123 371.607 103.975C373.176 101.826 373.96 98.6357 373.96 94.4033V93.4365C373.96 88.9463 373.208 85.498 371.704 83.0918C370.222 80.6855 367.515 79.4824 363.583 79.4824C360.296 79.4824 357.836 80.75 356.203 83.2852C354.57 85.7988 353.754 89.2363 353.754 93.5977C353.754 97.9375 354.56 101.289 356.171 103.652C357.804 106.016 360.274 107.197 363.583 107.197ZM403.802 75.0996C408.013 75.0996 411.139 76.0449 413.18 77.9355C415.221 79.8262 416.241 82.8447 416.241 86.9912V111H412.342L411.311 105.779H411.053C410.064 107.068 409.033 108.153 407.959 109.034C406.885 109.894 405.639 110.549 404.221 111C402.824 111.43 401.105 111.645 399.064 111.645C396.916 111.645 395.004 111.269 393.328 110.517C391.674 109.765 390.363 108.626 389.396 107.101C388.451 105.575 387.979 103.642 387.979 101.3C387.979 97.7764 389.375 95.0693 392.168 93.1787C394.961 91.2881 399.215 90.2568 404.93 90.085L411.021 89.8271V87.668C411.021 84.6172 410.365 82.4795 409.055 81.2549C407.744 80.0303 405.896 79.418 403.512 79.418C401.664 79.418 399.902 79.6865 398.227 80.2236C396.551 80.7607 394.961 81.3945 393.457 82.125L391.813 78.0645C393.403 77.248 395.229 76.5498 397.292 75.9697C399.354 75.3896 401.524 75.0996 403.802 75.0996ZM410.956 93.5977L405.574 93.8232C401.17 93.9951 398.065 94.7148 396.261 95.9824C394.456 97.25 393.554 99.0439 393.554 101.364C393.554 103.384 394.166 104.877 395.391 105.844C396.615 106.811 398.237 107.294 400.257 107.294C403.394 107.294 405.961 106.424 407.959 104.684C409.957 102.943 410.956 100.333 410.956 96.8525V93.5977Z" fill="#14142A"/>
</svg>
